<svg id="Layer_1" data-name="Layer 1" xmlns="http://www.w3.org/2000/svg" viewBox="0 0 99.83 50.31"><defs><style>.cls-1{fill:#f5a256;}.cls-2{fill:#fff;}.cls-3{fill:#531c10;}.cls-4{fill:#ff899f;}.cls-5{fill:#ff8a9e;}</style></defs><title>logo-scroll</title><path class="cls-1" d="M98,77a2,2,0,0,0-.47-.89L88.75,65.74l-.18-.18.22-.39a7,7,0,0,0,.73-1.58,2.31,2.31,0,0,0,0-1.61,2,2,0,0,0-.66-.81,6.21,6.21,0,0,0-.91-.52,102.75,102.75,0,0,0-18.79-7.18,85.56,85.56,0,0,0-19.66-3,74.14,74.14,0,0,0-19.79,1.95A68.56,68.56,0,0,0,11,59.81a4.85,4.85,0,0,0-1.5,1.25A2.12,2.12,0,0,0,9,62.39a.57.57,0,0,0,0,.12v.13a2.55,2.55,0,0,0,.14.52q.18.65,1.94,4.24c-.32.07-.6.68-.91.92L2.79,73.4A3.8,3.8,0,0,0,1.7,74.59,1.34,1.34,0,0,0,1.64,76a1.12,1.12,0,0,0,.59.44,3.85,3.85,0,0,0,.74.19l5.19.75a5.16,5.16,0,0,1,1.2.31,1.63,1.63,0,0,1,.89.79,2.08,2.08,0,0,1,.17,1,5.72,5.72,0,0,1-.16,1l-2,9.8a3,3,0,0,0,0,1.38c.13.48.37.72.72.71a.86.86,0,0,0,.44-.2c.05,0,.17-.17.37-.38a11.63,11.63,0,0,1,3.1-2.3c.48-.25,1.64-.78,3.49-1.59a56.54,56.54,0,0,0,9-5c.57-.4,0,.41,0,0s-1.34-.51-2.15-.76c-1.78-.51-4.16-1.27-6.08-1.66a55,55,0,0,1,15.87-8.81,44.64,44.64,0,0,1,15.15-2.23A54.18,54.18,0,0,1,63.3,72,108.33,108.33,0,0,1,80.68,79.5L73.1,80.89a1.39,1.39,0,0,0-.71.3.58.58,0,0,0-.28.62,1.09,1.09,0,0,0,.47.54L88.7,92.42c.58-4.94-.51-9.89-1-14.86l10.1.2c.24-.13.32-.39.23-.77" transform="translate(-0.08 -49.69)"/><path class="cls-2" d="M99.88,78a2.3,2.3,0,0,0-.49-.94L90.28,66l-.18-.19.23-.42a7.61,7.61,0,0,0,.75-1.68A2.54,2.54,0,0,0,91,62a2.11,2.11,0,0,0-.68-.86,5.45,5.45,0,0,0-.95-.55A103.33,103.33,0,0,0,70,52.94a86,86,0,0,0-20.31-3.2,74.22,74.22,0,0,0-20.45,2.08,69.59,69.59,0,0,0-19.3,7.86A4.91,4.91,0,0,0,8.37,61a2.28,2.28,0,0,0-.51,1.42.74.74,0,0,0,0,.12v.14a3,3,0,0,0,.14.56c.13.45.8,2,2,4.51a2.23,2.23,0,0,0-1,.49L1.45,74.14A3.78,3.78,0,0,0,.33,75.4a1.43,1.43,0,0,0-.07,1.5,1.22,1.22,0,0,0,.61.47,4.23,4.23,0,0,0,.76.2l5.37.8a5,5,0,0,1,1.24.33,1.7,1.7,0,0,1,.92.84,2.29,2.29,0,0,1,.18,1,7,7,0,0,1-.17,1.12l-2,10.42a3.46,3.46,0,0,0,0,1.47q.19.77.75.75a.89.89,0,0,0,.46-.21l.38-.4a11.74,11.74,0,0,1,3.19-2.45c.5-.27,1.71-.83,3.61-1.7a57.13,57.13,0,0,0,9.32-5.36,1.68,1.68,0,0,0,.87-1.3q0-.78-1.29-1.17-2.76-.81-5.73-1.43a41.2,41.2,0,0,1,14.06-8A44.84,44.84,0,0,1,48.4,69.89,54.73,54.73,0,0,1,64,72.6a74.2,74.2,0,0,1,14.75,6.63l-7,1.27a1.52,1.52,0,0,0-.73.32.64.64,0,0,0-.29.66,1.12,1.12,0,0,0,.49.58l17.88,12.3a75.85,75.85,0,0,0,.13-15.8l10.43.21c.26-.14.34-.41.25-.82M76.43,81.76l-.16-.14c.45-.06,1-.12,1.54-.17l.31,0a3.38,3.38,0,0,1,.59.28,9.4,9.4,0,0,1,.84.54l.55.44a1.62,1.62,0,0,0,.57.31,5.66,5.66,0,0,0-2-1.62c1.14-.14,1.95-.25,2.44-.33q.45-.07,4.29-6.82,1.91-3.37,3.73-6.75l8,9.49q-5.53-.23-8.3-.31a1.64,1.64,0,0,0-1.16.26c-.36.35-.46,1-.29,2a41.3,41.3,0,0,1,.32,12.15,152,152,0,0,1-13.15-9.23L76,81.66a8.33,8.33,0,0,0,1.16.82,4.75,4.75,0,0,1,.63.4,5.35,5.35,0,0,1,.44.37,5.48,5.48,0,0,0,.93.54l.59.3c.5.23.93.42,1.31.57,0-.08-.06-.14-.17-.19l-1.6-.86c-.44-.25-.71-.41-.79-.47a7.94,7.94,0,0,0-.73-.54,13.41,13.41,0,0,1-1.29-.84M81,78.51l-.38-.28a76.69,76.69,0,0,0-15.79-7.31A56.8,56.8,0,0,0,48.08,68a46.56,46.56,0,0,0-16.81,2.83A43.34,43.34,0,0,0,17,79.44a3.12,3.12,0,0,1-.2-.28c0-.06-.1-.31-.22-.74a6.66,6.66,0,0,0-.35-1.36c-.08-.26-.24-.7-.5-1.33s-.75-1.74-1.38-3.11L10.07,64c-.16-.31-.3-.6-.42-.9l-.22-.59A2,2,0,0,0,9.2,62a67.5,67.5,0,0,1,18.28-8A73.51,73.51,0,0,1,48.42,51.5a84.62,84.62,0,0,1,20.85,3.19,102.89,102.89,0,0,1,19.93,7.9,70.37,70.37,0,0,1-4.7,9.7q-3.45,6-3.49,6.22M10.6,69.05a6.89,6.89,0,0,0,.39.75c.1.17.24.41.44.72s.72,1.42,1.61,3.41,1.47,3.42,1.62,3.93q.08.3.21,1l.23,1.18a2.35,2.35,0,0,0,.2.67,1.14,1.14,0,0,0,.7.58.58.58,0,0,1,.16,0,2.18,2.18,0,0,0,.84.44l2.27.62-.2.13-.3.29-.44.2-1.16.63c0,.08.13.11.27.08a4.19,4.19,0,0,0,.84-.38l.88-.44a.9.9,0,0,1,.28-.21.46.46,0,0,0,.18-.19l1.39.38-1.42.76-.85.47a4.72,4.72,0,0,0-.69.4l-.53.4-.87.46a9.2,9.2,0,0,0-1,.68s0,.06.11,0l.41-.22a8,8,0,0,1,.73-.41l.52-.19a5.5,5.5,0,0,0,.56-.38,8.17,8.17,0,0,1,.93-.56l1-.56c.39-.21.68-.36.88-.44l.54-.21.18-.09,1.14.32A126.87,126.87,0,0,1,9.05,90.6l2-10.26a8.42,8.42,0,0,0,.15-1.11A2.2,2.2,0,0,0,11,78.16a2,2,0,0,0-.7-.7,6,6,0,0,0-.9-.37,35.13,35.13,0,0,0-7-1.41C5.22,73.56,8,71.35,10.6,69.05Z" transform="translate(-0.08 -49.69)"/><path class="cls-3" d="M27.75,55.59a2.47,2.47,0,0,1-.76,1,3.39,3.39,0,0,1-1.2.7,7.43,7.43,0,0,1-1.82.23,7.87,7.87,0,0,0-1.51.13,1.62,1.62,0,0,0-.92.72,1.3,1.3,0,0,0-.15,1.08,1.18,1.18,0,0,0,.67.76,3,3,0,0,0,1.15.24c.43,0,1.1,0,2-.08a19,19,0,0,1,2.18,0,3.48,3.48,0,0,1,1.54.43,2.08,2.08,0,0,1,1,1.28,3.21,3.21,0,0,1-.58,2.79,5.29,5.29,0,0,1-2.9,2,5.2,5.2,0,0,1-3.13.11,2.32,2.32,0,0,1-1.71-1.49A1.68,1.68,0,0,1,21.85,64a2.86,2.86,0,0,1,1.57-1.07,3.44,3.44,0,0,1,2-.06,1.54,1.54,0,0,1,1.15,1,1,1,0,0,1-.15.93,1.61,1.61,0,0,1-.86.61,1.58,1.58,0,0,1-1.6-.3l.18-.17A1.17,1.17,0,0,0,25,65a1.09,1.09,0,0,0,.64-.48.85.85,0,0,0,.09-.73,1,1,0,0,0-.72-.65,2.06,2.06,0,0,0-1.25,0,1.9,1.9,0,0,0-1.15.89,1.63,1.63,0,0,0-.17,1.34,1.94,1.94,0,0,0,1.4,1.25,4.19,4.19,0,0,0,2.54-.08A4.11,4.11,0,0,0,28.66,65a2.46,2.46,0,0,0,.43-2.19,1.62,1.62,0,0,0-.83-1.06,2.94,2.94,0,0,0-1.32-.34,17.9,17.9,0,0,0-2,.05c-.83,0-1.49.07-2,0a3,3,0,0,1-1.29-.33,1.61,1.61,0,0,1-.79-1,2.15,2.15,0,0,1,.4-1.93,3.53,3.53,0,0,1,1.88-1.34,8.15,8.15,0,0,1,1.65-.24,8.12,8.12,0,0,0,1.56-.22,2,2,0,0,0,1.14-.9Z" transform="translate(-0.08 -49.69)"/><path class="cls-3" d="M38.15,62.62q-.82,1.58-1.8,1.77a.71.71,0,0,1-.55-.09,1.28,1.28,0,0,1-.33-.77l-.12-.64a8,8,0,0,1-1.08,1.73,1.44,1.44,0,0,1-.7.4.83.83,0,0,1-.61-.1,1.63,1.63,0,0,1-.39-1l-.24-1.25A5.12,5.12,0,0,1,31.76,64l-.33-.12a5.62,5.62,0,0,0,.71-2.18l.82-.57.53,2.76a1.51,1.51,0,0,0,.12.39q.06.09.24.06a1,1,0,0,0,.47-.37,5.58,5.58,0,0,0,.6-1,3.92,3.92,0,0,0,.32-.71L35,61.16l.83-.57L36.31,63a3.33,3.33,0,0,0,.16.64.2.2,0,0,0,.26.12c.29,0,.66-.47,1.11-1.25Z" transform="translate(-0.08 -49.69)"/><path class="cls-3" d="M44.75,61.72c-.58,1-1.14,1.56-1.68,1.69l.27,2.43a2,2,0,0,1-.55,1.67,2.71,2.71,0,0,1-1.71.81,3.09,3.09,0,0,1-1.33-.11,1.28,1.28,0,0,1-.8-.58l.69-.71.14.09a.74.74,0,0,0,0,.21.9.9,0,0,0,.44.65,1.4,1.4,0,0,0,.93.2,1.45,1.45,0,0,0,1.06-.6,2,2,0,0,0,.25-1.35l-.39-3.47a2.59,2.59,0,0,1-1.79,1.17A1.7,1.7,0,0,1,39,63.51a1.41,1.41,0,0,1-.59-1l0-.31L38,62.8l-.32-.14a10.49,10.49,0,0,1,1.58-2A2.46,2.46,0,0,1,40.57,60a1.8,1.8,0,0,1,1.23.22l.85-.58L43,63c.42-.08.9-.54,1.43-1.39ZM42,62.13l-.16-1.46a1.33,1.33,0,0,0-1.18-.41,1.47,1.47,0,0,0-1.05.58A1.5,1.5,0,0,0,39.3,62a1.31,1.31,0,0,0,.43.91,1.17,1.17,0,0,0,.94.23,1.52,1.52,0,0,0,1-.47C41.9,62.38,42,62.21,42,62.13Z" transform="translate(-0.08 -49.69)"/><path class="cls-3" d="M51,61.69c-.67.94-1.33,1.43-2,1.45a.71.71,0,0,1-.54-.15,1.1,1.1,0,0,1-.19-.71,3.33,3.33,0,0,1-.91.78,1.94,1.94,0,0,1-.85.21,1.51,1.51,0,0,1-1.13-.37,1.46,1.46,0,0,1-.45-1.09v-.33l-.45.57-.3-.17a7.28,7.28,0,0,1,1.64-1.71,3,3,0,0,1,1.54-.66,2,2,0,0,1,1,.21l.79-.38L49.13,62a1.6,1.6,0,0,0,.06.5c0,.06.12.08.25.08a1.09,1.09,0,0,0,.51-.28,5.14,5.14,0,0,0,.74-.78Zm-2.77,0,0-1.55a1.28,1.28,0,0,0-.89-.29,1.4,1.4,0,0,0-1,.47,1.44,1.44,0,0,0-.4,1.09,1.06,1.06,0,0,0,1.19,1.13,1.12,1.12,0,0,0,.77-.38C48.09,61.92,48.21,61.76,48.2,61.69Z" transform="translate(-0.08 -49.69)"/><path class="cls-3" d="M55.32,61.91a2.77,2.77,0,0,1-2.13,1.3.92.92,0,0,1-1-1.07,2.86,2.86,0,0,1,1-1.78,4.84,4.84,0,0,1-.59,0,2.08,2.08,0,0,1-.57-.12,8.07,8.07,0,0,1-1.3,1.64l-.27-.2a12,12,0,0,0,1.59-2.34,4,4,0,0,0,1.37.39,1.2,1.2,0,0,0,.83-.28l.15.09a6.13,6.13,0,0,0-.95,1.16,2.8,2.8,0,0,0-.4,1.31.68.68,0,0,0,.16.43.51.51,0,0,0,.38.21,1.08,1.08,0,0,0,.68-.22,4.84,4.84,0,0,0,.79-.73Z" transform="translate(-0.08 -49.69)"/><path class="cls-3" d="M54.93,61.79c.13-.14.26-.29.39-.46s.32-.42.58-.79a2.89,2.89,0,0,0,.39-.63l.34-3.47a2.23,2.23,0,0,1,.86-1.54,2.29,2.29,0,0,1,1.67-.55c.71.07,1,.38,1,.94A3.88,3.88,0,0,1,59.49,57a24,24,0,0,1-2.27,2.79L56.91,63a1.74,1.74,0,0,0,.79-.14,4.74,4.74,0,0,0,1.12-.93l.26.22c-.8.92-1.54,1.36-2.22,1.29l-.26,2.68a1.87,1.87,0,0,1-.71,1.37,2.08,2.08,0,0,1-1.49.41,1.67,1.67,0,0,1-1.34-.8l.81-.55.13.12a1.23,1.23,0,0,0-.08.22.71.71,0,0,0,.17.52.8.8,0,0,0,.55.26c.59,0,.94-.43,1-1.46L56,63.35a2.47,2.47,0,0,1-.9-.43,1.68,1.68,0,0,1,.48-.63,1,1,0,0,0,.47.48l.2-2a6.83,6.83,0,0,1-1,1.3ZM57.3,59a7.31,7.31,0,0,0,2.08-3.59c0-.47-.13-.72-.53-.76A1,1,0,0,0,58,55a1.55,1.55,0,0,0-.44,1Z" transform="translate(-0.08 -49.69)"/><path class="cls-3" d="M62.37,62.77a4.45,4.45,0,0,1-1.21.86,1.83,1.83,0,0,1-1,.22c-.32-.05-.51-.15-.58-.31a1.84,1.84,0,0,1,0-.8l.21-1.4a4.7,4.7,0,0,1-1,1.07l-.25-.23a5,5,0,0,0,1.37-1.77l1-.28-.36,2.44a2,2,0,0,0,0,.6c0,.1.09.16.23.18s.75-.23,1.45-.82Zm-1-4.09-.73.59-.54-.77.74-.57Z" transform="translate(-0.08 -49.69)"/><path class="cls-3" d="M67.07,63.71a3.65,3.65,0,0,1-1.37.83,3.5,3.5,0,0,1-1.71,0,1.75,1.75,0,0,1-1.1-.61,1.36,1.36,0,0,1-.22-1.15,3.3,3.3,0,0,1,.12-.38c-.26.19-.47.35-.61.47l-.26-.24a11.34,11.34,0,0,1,2.17-1.48A2.26,2.26,0,0,1,65.47,61a1,1,0,0,1,.56.3.57.57,0,0,1,.14.52c-.13.66-1,1.17-2.45,1.54.11.41.46.66,1,.78a2.17,2.17,0,0,0,1-.07,3.27,3.27,0,0,0,1.09-.57ZM63.62,63c1.07-.21,1.66-.57,1.76-1.07a.52.52,0,0,0-.07-.41.56.56,0,0,0-.37-.22,1,1,0,0,0-.84.21,1.27,1.27,0,0,0-.49.79,1.14,1.14,0,0,0,0,.48C63.61,62.91,63.62,63,63.62,63Z" transform="translate(-0.08 -49.69)"/><path class="cls-3" d="M66.59,63.58l.4-.31a4.92,4.92,0,0,0,.39-.33,7,7,0,0,0,.47-.52,1.63,1.63,0,0,0,.3-.45l.77-2.9a2.93,2.93,0,0,1,1.31-1.74,2.39,2.39,0,0,1,1.89-.45.95.95,0,0,1,.72,1.25,3.77,3.77,0,0,1-1,1.47,30.25,30.25,0,0,1-2.73,2.34l-.57,2.17a3.38,3.38,0,0,0-.13.65.21.21,0,0,0,.19.22c.26.07.78-.15,1.54-.65l.22.27a3,3,0,0,1-2.44.8.68.68,0,0,1-.42-.3,1.45,1.45,0,0,1,.06-.85l.36-1.37a4.49,4.49,0,0,1-1.1.95Zm2.66-2.19a21.21,21.21,0,0,0,2.19-2,3,3,0,0,0,.72-1.19c.15-.57,0-.9-.38-1a1.16,1.16,0,0,0-1.08.29,2.53,2.53,0,0,0-.77,1.35Z" transform="translate(-0.08 -49.69)"/><path class="cls-3" d="M72.67,60.11a.89.89,0,0,1,.55-.61,1.24,1.24,0,0,1,.89,0A2.58,2.58,0,0,1,75.69,61a3.6,3.6,0,0,1,0,2.63A4.27,4.27,0,0,1,74,66a2.75,2.75,0,0,1-2.39.41,1.62,1.62,0,0,1-.93-.67,1.09,1.09,0,0,1-.13-.94l.09-.26a1,1,0,0,1,.11-.26l-.57.35-.23-.26c1.63-1.13,3-1.53,4-1.21a1.57,1.57,0,0,1,1,1,3.82,3.82,0,0,0,.25-.6,2.76,2.76,0,0,0-.12-2,2.27,2.27,0,0,0-1.4-1.36A2,2,0,0,0,72.67,60.11Zm-.46,5.94a1.67,1.67,0,0,0,1.38-.17,1.89,1.89,0,0,0,.94-1.06.89.89,0,0,0-.07-.8,1.27,1.27,0,0,0-.71-.52,1.73,1.73,0,0,0-1.36.15,1.7,1.7,0,0,0-.89,1,1.13,1.13,0,0,0,0,.87A1,1,0,0,0,72.21,66.05Zm3.42.26a3.62,3.62,0,0,1-3,.62l0-.2A4,4,0,0,0,75.42,66Z" transform="translate(-0.08 -49.69)"/><path class="cls-2" d="M37.85,89.78l.09-.09.14-.14a.46.46,0,0,0,.1-.1.23.23,0,0,0,0-.11V89c0-.27,0-.48,0-.63a.88.88,0,0,1,.05-.29V88l0,0v-.15c0-.15-.05-.25-.16-.29a.26.26,0,0,1-.17-.26s0-.09.1-.15l.28-.21c0-.13,0-.29.05-.45s0-.34.06-.54a.64.64,0,0,0,0-.09s0,0,0-.07a1.09,1.09,0,0,1,0-.26,1,1,0,0,1,.08-.24l.07-.13s.07-.09.12-.15a.59.59,0,0,0,.08-.11.2.2,0,0,0,0-.08.14.14,0,0,0,0-.06l-.07,0a1.37,1.37,0,0,0-.37.1,1,1,0,0,1-.36.1H37.9a.05.05,0,0,1,0,0,.66.66,0,0,1,0-.15s0-.07,0-.09a.44.44,0,0,0,.09-.11.18.18,0,0,0,0-.1.09.09,0,0,1,0-.05l.11-.06.48-.17.19-.07a1.82,1.82,0,0,1,.36-.08l.32,0h.07s.06,0,.07,0l.14,0,.12,0,.27.06.09,0a.27.27,0,0,1,.16,0,.24.24,0,0,1,.1.1l.1,0a.27.27,0,0,1,.16.06.57.57,0,0,1,.12.17,1,1,0,0,1,.08.22.78.78,0,0,1,0,.22,1.25,1.25,0,0,1-.07.43,1.33,1.33,0,0,1-.23.37l-.16.15-.43.38a.46.46,0,0,0-.07.07.94.94,0,0,1-.1.1l-.54.4-.33.25c-.07.06-.11.11-.11.14a.2.2,0,0,0,.06.15.7.7,0,0,0,.18.12l.38.17a5,5,0,0,1,.47.23l.06,0,.08,0a1.07,1.07,0,0,1,.43.33.81.81,0,0,1,.14.46c0,.25-.18.49-.54.71a6.83,6.83,0,0,1-1.63.65s0,.08,0,.11a.56.56,0,0,0,0,.12l-.07.07a.17.17,0,0,1-.1,0,.11.11,0,0,1-.1-.06.32.32,0,0,1,0-.18.06.06,0,0,0-.05,0l-.19.06-.07,0-.06,0L37.78,90a.24.24,0,0,1,0-.08.08.08,0,0,1,0-.06Zm1-2s-.07,0-.09.12a1.63,1.63,0,0,0-.07.35c0,.14,0,.28,0,.42l0,.43a1.46,1.46,0,0,0,0,.22v0l0,0,.3-.1c.08,0,.12,0,.14,0l.55-.32A1.34,1.34,0,0,0,40,88.7a.26.26,0,0,0,.11-.18.16.16,0,0,0,0-.09L40,88.35a1.41,1.41,0,0,0-.35-.23,2.68,2.68,0,0,0-.42-.19l-.07,0-.09,0L39,87.8Zm.66-3.16a.62.62,0,0,0-.21,0,.18.18,0,0,0-.11.07.53.53,0,0,0-.06.13q0,.11-.06.27a1.25,1.25,0,0,0,0,.21,1,1,0,0,0,0,.25,1.59,1.59,0,0,1-.08.18l0,.11c0,.14-.05.26-.06.34s0,.14,0,.17a.2.2,0,0,0,0,.09l.06,0a.54.54,0,0,0,.16-.09l.35-.28.38-.31.15-.12.09-.13a.57.57,0,0,1,.08-.13.48.48,0,0,0,.08-.16.35.35,0,0,0,0-.12.41.41,0,0,0-.05-.19.51.51,0,0,0-.15-.14l-.12,0-.23-.06-.17-.06A.17.17,0,0,0,39.55,84.61Z" transform="translate(-0.08 -49.69)"/><path class="cls-2" d="M40.81,88.56a1.75,1.75,0,0,1,.24-.25l.24-.23a1.3,1.3,0,0,1,.13-.19l.19-.25.13-.12a.24.24,0,0,1,.13,0,.14.14,0,0,1,.13,0,.22.22,0,0,1,0,.16,2.82,2.82,0,0,1-.1.53,2.24,2.24,0,0,0-.11.56.08.08,0,0,0,0,.06h0l.15-.13.2-.19.22-.27c.08-.11.19-.23.3-.38a1.36,1.36,0,0,0,.16-.17l.19-.25a.22.22,0,0,1,.13-.12.36.36,0,0,1,.19,0,.21.21,0,0,1,.12,0,.16.16,0,0,1,0,.11s0,0,0,.06a.43.43,0,0,0,0,0,3.12,3.12,0,0,1-.07.31l-.11.43c0,.11-.08.23-.12.38s-.09.3-.14.48l0,0a1.1,1.1,0,0,0,.21-.2c.09-.1.21-.24.35-.42l.14.39-.07.08-.1.1a6.27,6.27,0,0,0-.63.64,3.49,3.49,0,0,0-.41.62l-.37.76c-.11.19-.18.33-.22.41a2.69,2.69,0,0,1-.45.57.64.64,0,0,1-.41.19.18.18,0,0,1-.11,0,.21.21,0,0,1,0-.12.65.65,0,0,1,0-.11.49.49,0,0,1,.06-.13l.12-.24.1-.11a.23.23,0,0,0,0-.07.21.21,0,0,1,0-.06l.06-.06a1.52,1.52,0,0,1,.13-.25,5.26,5.26,0,0,1,.29-.45l.25-.37.2-.26a.94.94,0,0,0,0-.09s0-.06,0-.09l.1-.26c0-.11.08-.23.12-.37a1.15,1.15,0,0,0,.06-.28c0-.11,0-.22.05-.35s0,0,0,0a.31.31,0,0,0,0-.08l-.13.11-.16.18a1.48,1.48,0,0,1-.23.3.93.93,0,0,1-.22.19.72.72,0,0,1-.19.27.5.5,0,0,1-.27.08.22.22,0,0,1-.17-.06.3.3,0,0,1-.06-.2v-.07a.64.64,0,0,0,0-.09.53.53,0,0,1,0-.11.88.88,0,0,1,0-.16.78.78,0,0,0,0-.19s0-.07,0-.07h0l-.1.1-.17.17a.93.93,0,0,0,0-.13c0-.06,0-.11,0-.18l0,0S40.82,88.57,40.81,88.56Z" transform="translate(-0.08 -49.69)"/><path class="cls-2" d="M46.77,87.44a.4.4,0,0,0,.1.23,2.39,2.39,0,0,0,.29.35c.08.09.17.17.26.26l.26.25.15.15.21.22a1.54,1.54,0,0,0,.19.17,1.2,1.2,0,0,0,.21.17l.16.16.21.18a.35.35,0,0,1,.11.18,1.61,1.61,0,0,1,0,.35l0,.11,0,0a.16.16,0,0,1-.09,0,.53.53,0,0,1-.14-.1L48.51,90l-.39-.23a1.67,1.67,0,0,1-.26-.17l-.22-.2a1,1,0,0,0-.15-.14l-.21-.17-.22-.17-.14-.13a3.73,3.73,0,0,0-.3-.29.37.37,0,0,0-.16-.09.56.56,0,0,0,0,.12c0,.13-.05.3-.08.5s-.07.44-.1.71a.25.25,0,0,1,0,.1.07.07,0,0,1-.06,0,.25.25,0,0,1-.2-.08.36.36,0,0,1-.07-.24c0-.15,0-.3,0-.45s0-.33.07-.5l0-.21c0-.06,0-.12,0-.17a.45.45,0,0,0-.14-.33c-.09-.09-.13-.16-.13-.2a.7.7,0,0,1,0-.16.23.23,0,0,1,.07-.11l.2-.17a.09.09,0,0,0,0-.06v-.29c0-.25,0-.51,0-.79v-.25a.71.71,0,0,1,0-.14s0-.09,0-.12,0-.11,0-.15a.5.5,0,0,1,0-.12s0-.08,0-.16a1,1,0,0,0,0-.15,1,1,0,0,0,0-.16,1.16,1.16,0,0,1,0-.17.75.75,0,0,1,.06-.29.81.81,0,0,1,.17-.27A.76.76,0,0,1,46.5,84a.48.48,0,0,1,.24-.06h.34a1.08,1.08,0,0,1,.25.09l.13,0,.1,0,.13.08.07,0,.1,0,.07,0,.11.06.13.08.23.17.2.22a1.26,1.26,0,0,1,.16.3.79.79,0,0,1,.06.29s0,.07,0,.12a1.41,1.41,0,0,1,0,.18.5.5,0,0,1-.1.26,1.71,1.71,0,0,1-.26.31,3,3,0,0,1-.29.25,1,1,0,0,1-.24.14l-.07.07a.63.63,0,0,1-.14.12l-.3.19a3.42,3.42,0,0,1-.48.27C46.82,87.35,46.77,87.39,46.77,87.44Zm-.36-2,.13-.12a.17.17,0,0,1,.15-.05s.06,0,.1.11a.54.54,0,0,1,.05.16,1,1,0,0,1,0,.14c0,.07,0,.17-.06.29a4.4,4.4,0,0,0-.08.51c0,.07,0,.18,0,.32s0,.09,0,.15a.08.08,0,0,0,0,0s0,0,0,0l.7-.44,0,0,.06,0,.05-.08.41-.33a1.1,1.1,0,0,0,.2-.25.53.53,0,0,0,.06-.24.43.43,0,0,0-.15-.31,1.39,1.39,0,0,0-.43-.29,1.91,1.91,0,0,0-.45-.18,1.35,1.35,0,0,0-.37-.06.5.5,0,0,0-.33.09.38.38,0,0,0-.11.29.62.62,0,0,0,0,.21S46.39,85.41,46.41,85.41Z" transform="translate(-0.08 -49.69)"/><path class="cls-2" d="M48.68,88.56l0,0v0a2.6,2.6,0,0,1,.32-.41,3.16,3.16,0,0,0,.32-.41.27.27,0,0,1,.08-.1.16.16,0,0,1,.09,0,.27.27,0,0,1,.19.08.31.31,0,0,1,.11.22c0,.09,0,.17,0,.26l0,.27a1.71,1.71,0,0,1,.06.26.7.7,0,0,0,0,.19.18.18,0,0,0,.05.07h.09a.25.25,0,0,0,.12,0,.38.38,0,0,0,.13-.1l.11-.11.11-.11.14.39-.15.15-.21.2a2.12,2.12,0,0,1-.24.19.37.37,0,0,1-.15.06.6.6,0,0,1-.4-.09,1.24,1.24,0,0,1-.2-.49l0-.08-.07-.11a.53.53,0,0,0-.07-.15s0,0,0,0a.26.26,0,0,0-.14.09,2.89,2.89,0,0,0-.23.28.93.93,0,0,0,0-.13c0-.06,0-.11-.05-.18l0,0Zm1.41-3.34a.17.17,0,0,1,.13,0,.17.17,0,0,1,0,.12c0,.08,0,.14,0,.2s0,.18-.06.25,0,.11,0,.14a.83.83,0,0,1-.09.16.68.68,0,0,1-.12.12l-.14.1a.11.11,0,0,1-.07,0H49.5a.23.23,0,0,1-.07-.11.75.75,0,0,1,0-.23.58.58,0,0,1,.13-.32c.08-.13.15-.2.22-.21s.08-.12.13-.2a.19.19,0,0,1,.09-.05Z" transform="translate(-0.08 -49.69)"/><path class="cls-2" d="M50.62,88.56l0,0a.37.37,0,0,1,0-.11l.13-.14.11-.09a.94.94,0,0,0,.1-.1l.42-.44a1.51,1.51,0,0,1,.23-.21,2.12,2.12,0,0,1,.21-.15.94.94,0,0,1,.27-.23.67.67,0,0,1,.32-.12.09.09,0,0,1,.07,0,.25.25,0,0,1,0,.09v.23a.4.4,0,0,1-.06.22.51.51,0,0,1-.16.17l-.15.1-.15.09-.15.16-.31.31a1.2,1.2,0,0,0-.16.16.33.33,0,0,0-.08.11.78.78,0,0,0,0,.18.75.75,0,0,0,0,.22.44.44,0,0,0,0,.17.41.41,0,0,0,.07.11l.1.06.14.06.14-.05.18-.06.24-.18.24-.19,0,0,.05,0a.77.77,0,0,1,.09-.13l.15-.16a2.9,2.9,0,0,1,.13.39l-.25.26a1.08,1.08,0,0,1-.3.21l-.09.11a1.05,1.05,0,0,1-.39.31,1.08,1.08,0,0,1-.52.11h-.11l-.09,0L51,89.76l-.12-.13a.42.42,0,0,1-.08-.12.47.47,0,0,1,0-.14,1.34,1.34,0,0,1,0-.21.54.54,0,0,1,0-.11.24.24,0,0,0,0-.1.6.6,0,0,0-.06-.19A1.59,1.59,0,0,0,50.62,88.56Z" transform="translate(-0.08 -49.69)"/><path class="cls-2" d="M52.75,88.56l.12-.13a.33.33,0,0,0,.06-.08.47.47,0,0,0,.09-.12.3.3,0,0,0,0-.11c0-.09,0-.21.07-.36s.06-.31.11-.5a1.42,1.42,0,0,0,.06-.21c0-.09.05-.18.08-.29a3,3,0,0,1,.1-.38,2.37,2.37,0,0,1,.14-.32.39.39,0,0,0,0-.09.5.5,0,0,0,.05-.13l.07-.16c0-.06.06-.13.09-.22l.25-.43.17-.29a3,3,0,0,1,.25-.34,2.48,2.48,0,0,1,.25-.3,1,1,0,0,1,.2-.18.21.21,0,0,1,.13,0l.07.09h.05a.13.13,0,0,1,.12.09.6.6,0,0,1,0,.26s0,.06,0,.1l0,.15a.2.2,0,0,0,0,.08s0,.06,0,.09a.38.38,0,0,0,0,.1s0,.06,0,.08a2.07,2.07,0,0,0-.09.24c0,.1-.07.22-.11.35s-.05.11-.09.18a2.86,2.86,0,0,1-.12.27l-.09.2c0,.08-.08.17-.13.28a.52.52,0,0,1-.07.12l-.12.17a1.37,1.37,0,0,1-.11.23c-.06.11-.15.25-.26.43l-.21.32-.3.46q-.06.31-.09.57a2.29,2.29,0,0,0,0,.43s0,.08,0,.1,0,0,0,0l0-.07a.35.35,0,0,0,.07-.09,1.28,1.28,0,0,0,.15-.26c.06-.13.12-.3.2-.51a3.49,3.49,0,0,1,.17-.43.68.68,0,0,1,.13-.18l.12-.06.06,0h0s0,0,.08.07a.93.93,0,0,1,.06.18c0,.15,0,.26.07.33a1.2,1.2,0,0,1,0,.14.48.48,0,0,0,.11.19.2.2,0,0,0,.15.06l.25-.06s0,.11.06.18,0,.13.07.21l-.16.13-.17.12a.3.3,0,0,1-.15.06l-.24,0a.35.35,0,0,1-.32-.24c-.08-.16-.12-.24-.14-.24h0a1.63,1.63,0,0,1-.11.17l-.12.19a2,2,0,0,1-.1.22,3,3,0,0,1-.17.28,2.55,2.55,0,0,1-.19.26.28.28,0,0,1-.15.08.4.4,0,0,1-.2,0,.15.15,0,0,1-.09-.1c0-.16,0-.3-.06-.42s0-.21,0-.29v-.07s0,0,0-.06,0-.07,0-.12a0,0,0,0,0,0,0h0a.08.08,0,0,1,0,0l0,0a.9.9,0,0,0,0-.16C52.82,88.73,52.79,88.65,52.75,88.56ZM55,84.65s-.08.06-.15.17a4.89,4.89,0,0,0-.29.49l-.19.36c-.06.12-.12.24-.19.36l-.06.1a.34.34,0,0,0,0,.1c0,.16-.09.31-.14.45s-.07.26-.1.34,0,.13,0,.15l0,0,.11-.16.16-.25.22-.36a3.31,3.31,0,0,0,.25-.5c.09-.2.18-.42.28-.68L55,84.9a.65.65,0,0,0,0-.18.07.07,0,0,0,0,0S55,84.65,55,84.65Z" transform="translate(-0.08 -49.69)"/><path class="cls-2" d="M55.35,88.37l.31-.25a.21.21,0,0,1,0-.06.46.46,0,0,0,0-.1.36.36,0,0,1,.07-.1l.09-.06a.49.49,0,0,1,.07-.11l.13-.15a.46.46,0,0,0,.1-.07.77.77,0,0,0,.12-.13,5.71,5.71,0,0,1,.54-.55.72.72,0,0,1,.4-.18.19.19,0,0,1,.13,0,.22.22,0,0,1,0,.13.41.41,0,0,1,0,.16.21.21,0,0,1-.08.11l-.18.17-.13.19a1.17,1.17,0,0,1-.19.2.41.41,0,0,0,0,.09l-.07.08-.12.13a.88.88,0,0,1-.15.24l-.3.35a.85.85,0,0,0-.09.14l-.16.28,0,0a.44.44,0,0,0,.15-.1,1.11,1.11,0,0,0,.18-.19l.19-.21.1-.11.05,0,.06,0a1.49,1.49,0,0,1,.29-.34.42.42,0,0,1,.25-.11.12.12,0,0,1,.11.07.48.48,0,0,1,0,.21c0,.14,0,.27,0,.4a.54.54,0,0,0,.06.25.19.19,0,0,0,.17.1.07.07,0,0,0,.06,0l.06,0a.43.43,0,0,1,0-.07l.05-.07,0,0,0,0c0,.08,0,.16.07.22A.64.64,0,0,1,58,89l-.15.18-.16.18a.87.87,0,0,1-.2.15.41.41,0,0,1-.19,0,.42.42,0,0,1-.34-.15.93.93,0,0,1-.14-.47V88.8a.36.36,0,0,0,0-.09l0,.05a.15.15,0,0,0,0,.06,1.13,1.13,0,0,0-.11.11l-.16.15-.2.25-.11.14-.16.14-.2.15-.12.07-.08,0a.27.27,0,0,1-.24-.1.52.52,0,0,1-.08-.31.78.78,0,0,1,0-.21.82.82,0,0,1,.12-.2V88.9l0-.05a.93.93,0,0,0,0-.13l-.06-.16,0-.07A.67.67,0,0,0,55.35,88.37Z" transform="translate(-0.08 -49.69)"/><path class="cls-4" d="M74,89.74c-.29-.58-1.08-.06-.79.53,1.75,3.49-2.08,6.17-4.67,6.18-3,0-6-1.24-8.91-1.77a39.16,39.16,0,0,0-8.34-.85,6.18,6.18,0,0,0-2,.4c-2.45-1.36-6.78-.85-8.52-.59-3.18.45-6.29,1.36-9.48,1.77a12.64,12.64,0,0,1-5.09-.07c-1.9-.56-3.81-2.7-2.75-5.09.26-.6-.53-1.13-.79-.53a4.74,4.74,0,0,0,.42,4.58,5.87,5.87,0,0,0,5,2.35c5.14.19,10.11-2,15.22-2.22a14.58,14.58,0,0,1,4.89.48,3,3,0,0,0-.88,1.49c-.32,1.28.06,3,1.27,3.5S51,99,51.08,97.61A3.29,3.29,0,0,0,50.3,95a9.26,9.26,0,0,1,2.46-.08,54.21,54.21,0,0,1,8.69,1.19c2.35.51,4.71,1.41,7.12,1.4a5.69,5.69,0,0,0,4.92-2.45A5.19,5.19,0,0,0,74,89.74ZM50.07,98c-.39,1.29-1.58.94-1.89-.13a2.2,2.2,0,0,1,.68-2.17,3.47,3.47,0,0,1,.38-.29A2.1,2.1,0,0,1,50.07,98Z" transform="translate(-0.08 -49.69)"/><path class="cls-5" d="M66.64,83.53a1.84,1.84,0,0,0,.58-.62l.09-.11a2.06,2.06,0,0,0,.31-.67,2.57,2.57,0,0,0,.09-.77v0A3,3,0,0,0,67.38,80a3.36,3.36,0,0,0-1-1.2,2.81,2.81,0,0,0-1.66-.63,3.82,3.82,0,0,0-1.28.22c-.28.09-.69.25-1.23.46a8.69,8.69,0,0,1-2.94.46c-2,0-3.74,0-5.32,0-1.34,0-2,0-2,0,0,.78,0,1.18,0,1.2s2.48.11,7.35.22a6,6,0,0,1,.6.1,2.73,2.73,0,0,1,.59.19,4.71,4.71,0,0,1,.48.29l.47.35,1,.71.86.56a6.47,6.47,0,0,0,.88.47,3.22,3.22,0,0,0,1.83.32,1.53,1.53,0,0,0,.63-.22m.06-.25h0a1.61,1.61,0,0,1-.56.25,2.91,2.91,0,0,1-1.79-.24,6.57,6.57,0,0,1-.86-.45q-.28-.16-.84-.54l-.71-.49-.45-.34a5.4,5.4,0,0,0-.46-.33,3.3,3.3,0,0,0-1.17-.48l-.69-.13v-.1a16.11,16.11,0,0,1,2.13.53,8.86,8.86,0,0,1,2.05,1c.35.25.61.42.79.53a7.47,7.47,0,0,0,1.16.56,4.72,4.72,0,0,0,.77.25,1.51,1.51,0,0,0,.64,0m.53-.71c0,.1-.11.2-.17.3l-.14.12a1.07,1.07,0,0,1-.68.19,2.32,2.32,0,0,1-.67-.18,9,9,0,0,1-1.64-.8l-.66-.46a8,8,0,0,0-1.67-.8,9.49,9.49,0,0,0-1.55-.43c-.45-.08-.74-.14-.88-.18v-.07c.52.08,1,.18,1.53.28s.84.2,1.09.28l1.55.59a8.2,8.2,0,0,0,1.56.46c.23,0,.57.06,1,.08h.78a2.42,2.42,0,0,0,.76-.2l0,0a2.74,2.74,0,0,1-.28.85m.17-.93a2.85,2.85,0,0,1-.88.19,6.31,6.31,0,0,1-.92,0l-.77-.09a9.49,9.49,0,0,1-1.6-.5c-.82-.32-1.35-.52-1.61-.59a14.37,14.37,0,0,0-2.44-.44V80a4.35,4.35,0,0,0,1.14.23,10.61,10.61,0,0,0,1.25,0A10.93,10.93,0,0,0,63,80.12l.87-.17a4,4,0,0,1,1.87.2,4.55,4.55,0,0,1,1.72,1.11.37.37,0,0,1,.1.14s0,.07,0,.11a.3.3,0,0,1-.14.13m.07-.56c-.11-.1-.28-.24-.52-.42a7.44,7.44,0,0,0-.66-.44,3.78,3.78,0,0,0-2.1-.41c-.27,0-.61.06-1,.13s-1.11.16-1.73.21a7.23,7.23,0,0,1-2.2-.22v-.16a5.44,5.44,0,0,0,2.28,0,9,9,0,0,0,1.17-.29l1.15-.35a3.78,3.78,0,0,1,.65-.15,3.35,3.35,0,0,1,1.2.21,4.31,4.31,0,0,1,1,.46,2.28,2.28,0,0,1,.77.92,2.41,2.41,0,0,1,.16.54v0l-.08-.08m-.29-1.14a2.75,2.75,0,0,1,.14.3,1.94,1.94,0,0,0-.43-.51A3.63,3.63,0,0,0,65.47,79a3.23,3.23,0,0,0-.87-.16A3.54,3.54,0,0,0,64,79q-.38.09-1.17.36a11,11,0,0,1-1.17.34,4.78,4.78,0,0,1-2.45,0v-.15c.5,0,.94-.06,1.3-.11a7.68,7.68,0,0,0,1.58-.35l1.31-.48a3.87,3.87,0,0,1,1.36-.23,2.81,2.81,0,0,1,1.61.65,3.21,3.21,0,0,1,.79.93m-8.13-.09,0,.38c-2.27-.17-4.59-.27-6.94-.31a.17.17,0,0,1,0-.12c0-.06,0-.1,0-.1.36,0,1.61,0,3.76.07S59,79.86,59.05,79.85Z" transform="translate(-0.08 -49.69)"/><path class="cls-5" d="M44.43,80.38a1,1,0,0,0,.08-.47,1.38,1.38,0,0,0-.46-.77,1.06,1.06,0,0,0-.31-.21.81.81,0,0,0-.38,0,1.26,1.26,0,0,0-.65.3,4.87,4.87,0,0,0-.37.35,1,1,0,0,1-.42.19.41.41,0,0,1-.35,0l-.07,0a1,1,0,0,0-.07-.15,7.65,7.65,0,0,0-.39-.66,1,1,0,0,0-.39-.4c-.06,0-2,0-5.76.09s-5.69.13-5.74.17a.72.72,0,0,0-.21.54,2.44,2.44,0,0,0,0,.54l-.17.12a.5.5,0,0,1-.28.08l-.2,0a4.66,4.66,0,0,1-.67-.35,3,3,0,0,0-.35-.2,1.26,1.26,0,0,0-.3-.08,1.24,1.24,0,0,0-.44,0,.58.58,0,0,0-.41.26.77.77,0,0,0-.13.52,1.44,1.44,0,0,0,.11.43,1.58,1.58,0,0,0,.37.54.9.9,0,0,0,.5.26,1.19,1.19,0,0,0,.62-.14,2.41,2.41,0,0,0,.64-.36c.08-.08.14-.15.19-.19a.62.62,0,0,1,.22-.14.47.47,0,0,1,.26,0l.19.06a3.49,3.49,0,0,0,.29.66,1,1,0,0,0,.36.42.91.91,0,0,0,.38.06l10.69-.09a.77.77,0,0,0,.4-.08,1.07,1.07,0,0,0,.25-.41,2.66,2.66,0,0,0,.17-.64.69.69,0,0,1,.19-.1.53.53,0,0,1,.24-.06.9.9,0,0,1,.3,0l.31.08c.07,0,.24.1.5.23a1.92,1.92,0,0,0,.5.18.79.79,0,0,0,.45-.1.81.81,0,0,0,.31-.35m-4.06-1.45a.71.71,0,0,1,.1.3,57.89,57.89,0,0,1-5.83,0l-5.57-.13Q28.95,79,29,79a61.32,61.32,0,0,1,6.32-.13,29.57,29.57,0,0,0,4.84-.13A.74.74,0,0,1,40.37,78.93Z" transform="translate(-0.08 -49.69)"/><path class="cls-5" d="M40.89,79.37a.71.71,0,0,0-.1-.31.74.74,0,0,0-.2-.23,30.26,30.26,0,0,1-4.84.14,58.55,58.55,0,0,0-6.32.13s0,.06.06.18l5.58.12Q40.11,79.49,40.89,79.37Z" transform="translate(-0.08 -49.69)"/><path class="cls-2" d="M46.27,79.84l.08-.11.12-.15c0-.06,0-.13.05-.22a2.36,2.36,0,0,0,0-.31c0-.12,0-.23,0-.32a1.65,1.65,0,0,1,0-.21c.08-.3.14-.53.19-.7s.07-.26.08-.29a4.23,4.23,0,0,1,.19-.51l.2-.4.06-.06.06-.08.19-.11.1,0h.1a.12.12,0,0,1,.12.08.57.57,0,0,1,0,.25,2.32,2.32,0,0,1,0,.24c0,.08,0,.17-.07.28a2.82,2.82,0,0,0-.1.34c0,.09,0,.14,0,.16a.51.51,0,0,1-.05.17c0,.07-.06.15-.11.25l-.13.28a.57.57,0,0,0-.06.12l0,.05,0,0v.07l0,.06c0,.07-.07.15-.13.26s-.11.22-.19.35a.7.7,0,0,0-.1.19.35.35,0,0,0,0,.13v.28a.76.76,0,0,0,0,.16l0,.16a.37.37,0,0,0,0,.15.12.12,0,0,0,.09.06.23.23,0,0,0,.18-.07.33.33,0,0,0,.11-.18.35.35,0,0,1-.11-.08.16.16,0,0,1,0-.1.19.19,0,0,0,0-.07l0-.08a.43.43,0,0,0,0,0,.07.07,0,0,0,0,0,2.53,2.53,0,0,1,.23-.4c.07-.09.14-.14.19-.14h.24a.06.06,0,0,1,.06,0,.16.16,0,0,1,0,.1.72.72,0,0,1-.07.3,1.32,1.32,0,0,0-.07.18s0,0,0,0l0,0,0,0a.36.36,0,0,0,0,.09s0,.08,0,.13a.05.05,0,0,1,0,0s0,0,0,0a2.06,2.06,0,0,1-.21.21.37.37,0,0,1-.15.08h-.11l-.09.13a1.11,1.11,0,0,0-.12.16l-.07.06-.1.09A.38.38,0,0,1,47,81a.3.3,0,0,1-.15,0h-.07l-.08,0a.18.18,0,0,1-.07,0l-.09-.08c0-.13-.06-.25-.08-.35s0-.22,0-.32v0l0,0h0l0,0a.78.78,0,0,0-.05-.14Zm1.28-2.58v0s0,0,0,0,0,0,0,.05a.68.68,0,0,0,0,.13.65.65,0,0,1-.05.15s-.06.12-.1.2-.07.14-.1.23-.07.17-.1.27a2.43,2.43,0,0,0-.09.3.61.61,0,0,0,0,.21v0s0,0,.07-.13.08-.18.14-.32A3.05,3.05,0,0,0,47.3,78l.05-.13a1.94,1.94,0,0,1,0-.2c0-.08,0-.17.07-.26a.73.73,0,0,1,.05-.09s0,0,0,0A.09.09,0,0,0,47.55,77.26Z" transform="translate(-0.08 -49.69)"/><path class="cls-2" d="M47.92,79.84a2,2,0,0,1,.2-.19l.19-.17.11-.14.16-.19a.31.31,0,0,1,.11-.09.19.19,0,0,1,.1,0,.12.12,0,0,1,.1,0s0,.06,0,.12a1.76,1.76,0,0,1-.08.39,1.47,1.47,0,0,0-.08.42.07.07,0,0,0,0,0h0l.12-.1.16-.14.18-.2.25-.29a1.58,1.58,0,0,0,.13-.13l.16-.19a.18.18,0,0,1,.1-.09.33.33,0,0,1,.15,0,.13.13,0,0,1,.1,0,.1.1,0,0,1,0,.08v0a.06.06,0,0,0,0,0,1.58,1.58,0,0,1-.06.23,3.4,3.4,0,0,1-.09.33l-.1.28c0,.11-.07.23-.11.36l0,0a.66.66,0,0,0,.17-.15l.29-.32.11.29-.05.06a.36.36,0,0,1-.09.08,4.62,4.62,0,0,0-.5.48,2.26,2.26,0,0,0-.34.46,6.46,6.46,0,0,1-.31.57l-.17.31a2.09,2.09,0,0,1-.37.43.53.53,0,0,1-.33.14.11.11,0,0,1-.12-.12.31.31,0,0,1,0-.08.24.24,0,0,1,.05-.1l.09-.18.09-.08a.35.35,0,0,1,0-.06s0,0,0,0l0,0a.88.88,0,0,1,.1-.19l.24-.33.2-.27a2,2,0,0,0,.16-.21.16.16,0,0,0,0-.06.64.64,0,0,0,0-.07l.08-.19.1-.28c0-.06,0-.13.05-.21l0-.26v0a.14.14,0,0,0,0-.06.35.35,0,0,0-.1.08l-.13.14a1.44,1.44,0,0,1-.19.22.73.73,0,0,1-.18.14.47.47,0,0,1-.16.2.34.34,0,0,1-.22.07.2.2,0,0,1-.14,0,.22.22,0,0,1,0-.15v0s0,0,0-.07a.92.92,0,0,0,0-.09.37.37,0,0,0,0-.12.53.53,0,0,0,0-.14s0,0,0,0h0a.59.59,0,0,0-.08.08l-.14.12,0-.1a.5.5,0,0,1,0-.13s0,0,0,0A0,0,0,0,0,47.92,79.84Z" transform="translate(-0.08 -49.69)"/><path class="cls-2" d="M14.88,68.53l4.42-2.1c.63-.31.16-1.36-.47-1.06l-4.41,2.11C13.78,67.78,14.25,68.83,14.88,68.53Z" transform="translate(-0.08 -49.69)"/><path class="cls-2" d="M20.18,67.14a59.46,59.46,0,0,0-5.62,2.6c-.63.33-.16,1.38.46,1.05a60.55,60.55,0,0,1,5.62-2.59C21.29,67.94,20.82,66.88,20.18,67.14Z" transform="translate(-0.08 -49.69)"/><path class="cls-2" d="M82.56,68.42l-4.63-2c-.91-.39-1.69.87-.79,1.26l4.64,2C82.68,70.06,83.47,68.8,82.56,68.42Z" transform="translate(-0.08 -49.69)"/><path class="cls-2" d="M82.59,65.6l-3.51-1.76c-.61-.3-1.14.61-.53.91l3.51,1.76C82.67,66.81,83.2,65.9,82.59,65.6Z" transform="translate(-0.08 -49.69)"/></svg>